# xmcd
#
# Track frame offsets:
# 150
# 19357
# 40140
# 62488
# 81156
# 101233
# 121156
# 141225
#
# Disc length: 2132 seconds
#
#
# Revision: 1
# Processed by: cddbd v1.4PL0 Copyright (c) Steve Scherf et al.
# Submitted via: FreeRIP 2.00 
#
DISCID=69085208
DTITLE=Yamaha - Majesty Sound
DYEAR=2002
DGENRE=New Age
TTITLE0=Majesty
TTITLE1=Foreigner in Rio
TTITLE2=Wessè
TTITLE3=You know what you exspect
TTITLE4=Wood signs
TTITLE5=Running to the down
TTITLE6=Though the silk way
TTITLE7=Acid trendy
EXTD=YEAR: 2002
EXTT0=
EXTT1=
EXTT2=
EXTT3=
EXTT4=
EXTT5=
EXTT6=
EXTT7=
PLAYORDER=
